<svg version="1.1" id="Layer_1" xmlns="http://www.w3.org/2000/svg" xmlns:xlink="http://www.w3.org/1999/xlink" x="0px" y="0px"
	 width="100%" viewBox="0 0 270 302" enable-background="new 0 0 270 302" xml:space="preserve">
<path fill="#010101" opacity="1.000000" stroke="none" 
	d="
M121.000000,303.000000 
	C80.666664,303.000000 40.833332,303.000000 1.000000,303.000000 
	C1.000000,202.333328 1.000000,101.666664 1.000000,1.000000 
	C91.000000,1.000000 181.000000,1.000000 271.000000,1.000000 
	C271.000000,101.666664 271.000000,202.333328 271.000000,303.000000 
	C221.166672,303.000000 171.333328,303.000000 121.000000,303.000000 
M141.891083,256.908783 
	C142.648712,256.747772 143.406357,256.586761 144.788864,256.061707 
	C147.836914,247.976685 150.711304,239.820938 153.970139,231.821793 
	C160.225647,216.467010 167.231094,201.589249 181.250046,191.393753 
	C182.207230,190.697662 182.560577,188.190613 182.187683,186.794800 
	C177.334381,168.627365 172.314941,150.504166 167.301239,132.379791 
	C165.331726,125.260048 165.290848,125.271355 157.213974,126.923431 
	C157.213974,128.612854 157.214111,130.410477 157.213943,132.208084 
	C157.212738,145.537827 157.264999,158.867859 157.191895,172.197205 
	C157.141068,181.465225 153.026245,187.414383 144.396744,190.277481 
	C141.593384,191.207596 141.022568,192.655548 141.016403,195.329422 
	C140.977264,212.323792 140.794312,229.318008 140.600754,246.311615 
	C140.576385,248.450287 140.212280,250.585114 138.715576,252.647064 
	C138.433426,250.890701 137.903183,249.133682 137.907837,247.378082 
	C137.950272,231.381378 138.088303,215.384964 138.191879,199.388412 
	C138.208893,196.760834 138.194275,194.133041 138.194275,191.672928 
	C125.450203,187.529327 119.835083,179.880493 121.826820,169.893936 
	C123.964546,159.175385 132.096359,154.858322 147.653793,156.543961 
	C147.653793,136.251648 147.653793,116.011307 147.653793,95.767853 
	C162.492188,96.100098 168.140808,102.793129 172.487152,124.535942 
	C181.643982,113.542961 178.242172,93.998764 165.392731,86.175133 
	C156.663345,80.860100 147.476868,76.295792 138.008453,71.130440 
	C138.008453,89.376801 138.008453,107.566994 138.008453,126.204689 
	C129.345627,126.204689 121.262962,126.204689 112.862679,126.204689 
	C107.048019,148.243729 101.325058,169.935211 95.625587,191.537643 
	C119.708191,206.473923 125.094376,231.881851 133.312210,256.781647 
	C135.693542,255.499298 137.848541,254.338852 140.512039,254.358017 
	C140.955261,255.039688 141.398483,255.721359 141.891083,256.908783 
z"/>
<path fill="#F5F5F5" opacity="1.000000" stroke="none" 
	d="
M140.003555,253.178391 
	C137.848541,254.338852 135.693542,255.499298 133.312210,256.781647 
	C125.094376,231.881851 119.708191,206.473923 95.625587,191.537643 
	C101.325058,169.935211 107.048019,148.243729 112.862679,126.204689 
	C121.262962,126.204689 129.345627,126.204689 138.008453,126.204689 
	C138.008453,107.566994 138.008453,89.376801 138.008453,71.130440 
	C147.476868,76.295792 156.663345,80.860100 165.392731,86.175133 
	C178.242172,93.998764 181.643982,113.542961 172.487152,124.535942 
	C168.140808,102.793129 162.492188,96.100098 147.653793,95.767853 
	C147.653793,116.011307 147.653793,136.251648 147.653793,156.543961 
	C132.096359,154.858322 123.964546,159.175385 121.826820,169.893936 
	C119.835083,179.880493 125.450203,187.529327 138.194275,191.672928 
	C138.194275,194.133041 138.208893,196.760834 138.191879,199.388412 
	C138.088303,215.384964 137.950272,231.381378 137.907837,247.378082 
	C137.903183,249.133682 138.433426,250.890701 139.366989,252.610138 
	C140.021194,252.971161 140.016251,253.172882 140.003555,253.178391 
z"/>
<path fill="#F6F6F6" opacity="1.000000" stroke="none" 
	d="
M140.257797,253.768204 
	C140.016251,253.172882 140.021194,252.971161 140.011993,252.647461 
	C140.212280,250.585114 140.576385,248.450287 140.600754,246.311615 
	C140.794312,229.318008 140.977264,212.323792 141.016403,195.329422 
	C141.022568,192.655548 141.593384,191.207596 144.396744,190.277481 
	C153.026245,187.414383 157.141068,181.465225 157.191895,172.197205 
	C157.264999,158.867859 157.212738,145.537827 157.213943,132.208084 
	C157.214111,130.410477 157.213974,128.612854 157.213974,126.923431 
	C165.290848,125.271355 165.331726,125.260048 167.301239,132.379791 
	C172.314941,150.504166 177.334381,168.627365 182.187683,186.794800 
	C182.560577,188.190613 182.207230,190.697662 181.250046,191.393753 
	C167.231094,201.589249 160.225647,216.467010 153.970139,231.821793 
	C150.711304,239.820938 147.836914,247.976685 144.097565,256.115906 
	C142.884735,256.247742 142.363220,256.325378 141.841705,256.403046 
	C141.398483,255.721359 140.955261,255.039688 140.257797,253.768204 
z"/>
<path fill="#535353" opacity="1.000000" stroke="none" 
	d="
M141.866394,256.655914 
	C142.363220,256.325378 142.884735,256.247742 143.785126,256.297913 
	C143.406357,256.586761 142.648712,256.747772 141.866394,256.655914 
z"/>
</svg>